<mxfile host="Electron" modified="2024-07-12T08:10:34.058Z" agent="Mozilla/5.0 (Windows NT 10.0; Win64; x64) AppleWebKit/537.36 (KHTML, like Gecko) draw.io/22.1.16 Chrome/120.0.6099.109 Electron/28.1.0 Safari/537.36" etag="lNuQyPDn_IBtUsdCKo-3" version="22.1.16" type="device">
  <diagram name="Pagina-1" id="ej1dVefqYXsf6kIaZEYO">
    <mxGraphModel dx="1434" dy="836" grid="1" gridSize="10" guides="1" tooltips="1" connect="1" arrows="1" fold="1" page="1" pageScale="1" pageWidth="850" pageHeight="1100" math="0" shadow="0">
      <root>
        <mxCell id="0" />
        <mxCell id="1" parent="0" />
        <mxCell id="XU4_op4EVZj-XPHD7sc--74" value="if()" style="verticalAlign=top;align=left;spacingTop=8;spacingLeft=2;spacingRight=12;shape=cube;size=10;direction=south;fontStyle=4;html=1;whiteSpace=wrap;" parent="1" vertex="1">
          <mxGeometry x="135" y="630" width="1610" height="570" as="geometry" />
        </mxCell>
        <mxCell id="XU4_op4EVZj-XPHD7sc--75" value="if()" style="verticalAlign=top;align=left;spacingTop=8;spacingLeft=2;spacingRight=12;shape=cube;size=10;direction=south;fontStyle=4;html=1;whiteSpace=wrap;" parent="1" vertex="1">
          <mxGeometry x="150" y="700" width="1570" height="480" as="geometry" />
        </mxCell>
        <mxCell id="XU4_op4EVZj-XPHD7sc--88" value="for(every value&lt;br&gt;&amp;nbsp;in sequence)" style="verticalAlign=top;align=left;spacingTop=8;spacingLeft=2;spacingRight=12;shape=cube;size=10;direction=south;fontStyle=4;html=1;whiteSpace=wrap;" parent="1" vertex="1">
          <mxGeometry x="160" y="990" width="1530" height="70" as="geometry" />
        </mxCell>
        <mxCell id="XU4_op4EVZj-XPHD7sc--78" value="for(every box)" style="verticalAlign=top;align=left;spacingTop=8;spacingLeft=2;spacingRight=12;shape=cube;size=10;direction=south;fontStyle=4;html=1;whiteSpace=wrap;" parent="1" vertex="1">
          <mxGeometry x="160" y="760" width="1530" height="90" as="geometry" />
        </mxCell>
        <mxCell id="XU4_op4EVZj-XPHD7sc--71" value="ActionPerformed()" style="html=1;verticalAlign=bottom;endArrow=block;curved=0;rounded=0;" parent="1" edge="1">
          <mxGeometry x="0.8333" width="80" relative="1" as="geometry">
            <mxPoint x="1155" y="519.9999999999999" as="sourcePoint" />
            <mxPoint x="494.9999999999998" y="519.9999999999999" as="targetPoint" />
            <mxPoint as="offset" />
          </mxGeometry>
        </mxCell>
        <mxCell id="XU4_op4EVZj-XPHD7sc--62" value="" style="html=1;verticalAlign=bottom;endArrow=block;curved=0;rounded=0;entryX=0.03;entryY=-0.009;entryDx=0;entryDy=0;entryPerimeter=0;" parent="1" source="XU4_op4EVZj-XPHD7sc--52" target="XU4_op4EVZj-XPHD7sc--61" edge="1">
          <mxGeometry width="80" relative="1" as="geometry">
            <mxPoint x="760" y="270" as="sourcePoint" />
            <mxPoint x="166.7741935483871" y="190" as="targetPoint" />
            <Array as="points">
              <mxPoint x="190" y="190" />
            </Array>
          </mxGeometry>
        </mxCell>
        <mxCell id="XU4_op4EVZj-XPHD7sc--66" value="getTotAttempts()" style="html=1;verticalAlign=bottom;endArrow=block;curved=0;rounded=0;" parent="1" edge="1">
          <mxGeometry x="0.8804" y="-1" width="80" relative="1" as="geometry">
            <mxPoint x="735.0000000000002" y="318.9999999999999" as="sourcePoint" />
            <mxPoint x="1655" y="318.9999999999999" as="targetPoint" />
            <mxPoint as="offset" />
          </mxGeometry>
        </mxCell>
        <mxCell id="XU4_op4EVZj-XPHD7sc--67" value="initializeHints()" style="html=1;verticalAlign=bottom;endArrow=block;curved=0;rounded=0;" parent="1" edge="1">
          <mxGeometry x="0.8804" y="-1" width="80" relative="1" as="geometry">
            <mxPoint x="735.0000000000002" y="338.9999999999999" as="sourcePoint" />
            <mxPoint x="1655" y="338.9999999999999" as="targetPoint" />
            <mxPoint as="offset" />
          </mxGeometry>
        </mxCell>
        <mxCell id="XU4_op4EVZj-XPHD7sc--68" value="applyDifficulty()" style="html=1;verticalAlign=bottom;endArrow=block;curved=0;rounded=0;" parent="1" edge="1">
          <mxGeometry x="0.8268" width="80" relative="1" as="geometry">
            <mxPoint x="1010" y="360" as="sourcePoint" />
            <mxPoint x="375" y="360" as="targetPoint" />
            <mxPoint as="offset" />
          </mxGeometry>
        </mxCell>
        <mxCell id="XU4_op4EVZj-XPHD7sc--69" value="setupAttemptsTable()" style="html=1;verticalAlign=bottom;endArrow=block;curved=0;rounded=0;" parent="1" edge="1">
          <mxGeometry x="0.8073" width="80" relative="1" as="geometry">
            <mxPoint x="375" y="380" as="sourcePoint" />
            <mxPoint x="1155" y="380" as="targetPoint" />
            <mxPoint as="offset" />
          </mxGeometry>
        </mxCell>
        <mxCell id="XU4_op4EVZj-XPHD7sc--64" value="defineTotalAttempts()" style="html=1;verticalAlign=bottom;endArrow=block;curved=0;rounded=0;" parent="1" edge="1">
          <mxGeometry x="0.8804" y="9" width="80" relative="1" as="geometry">
            <mxPoint x="735" y="259" as="sourcePoint" />
            <mxPoint x="1655" y="259" as="targetPoint" />
            <mxPoint as="offset" />
          </mxGeometry>
        </mxCell>
        <mxCell id="XU4_op4EVZj-XPHD7sc--63" value="getDifficultyChosen()" style="html=1;verticalAlign=bottom;endArrow=block;curved=0;rounded=0;" parent="1" edge="1">
          <mxGeometry x="0.8077" y="-1" width="80" relative="1" as="geometry">
            <mxPoint x="375" y="239" as="sourcePoint" />
            <mxPoint x="1155" y="239" as="targetPoint" />
            <mxPoint as="offset" />
          </mxGeometry>
        </mxCell>
        <mxCell id="XU4_op4EVZj-XPHD7sc--59" value="select difficulty&lt;br&gt;and confirm" style="html=1;verticalAlign=bottom;endArrow=block;curved=0;rounded=0;exitX=0.5;exitY=0.5;exitDx=0;exitDy=0;exitPerimeter=0;" parent="1" source="bKO9Z_HtG4AWZGj5XjEJ-2" target="XU4_op4EVZj-XPHD7sc--33" edge="1">
          <mxGeometry x="0.8598" width="80" relative="1" as="geometry">
            <mxPoint x="710" y="340" as="sourcePoint" />
            <mxPoint x="790" y="340" as="targetPoint" />
            <mxPoint as="offset" />
          </mxGeometry>
        </mxCell>
        <mxCell id="XU4_op4EVZj-XPHD7sc--70" value="defiine sequence&lt;br&gt;and confirm" style="html=1;verticalAlign=bottom;endArrow=block;curved=0;rounded=0;exitX=0.5;exitY=0.5;exitDx=0;exitDy=0;exitPerimeter=0;" parent="1" source="bKO9Z_HtG4AWZGj5XjEJ-2" target="XU4_op4EVZj-XPHD7sc--33" edge="1">
          <mxGeometry x="0.903" width="80" relative="1" as="geometry">
            <mxPoint x="290" y="320" as="sourcePoint" />
            <mxPoint x="160" y="500" as="targetPoint" />
            <Array as="points">
              <mxPoint x="210" y="150" />
              <mxPoint x="210" y="490" />
            </Array>
            <mxPoint as="offset" />
          </mxGeometry>
        </mxCell>
        <mxCell id="bKO9Z_HtG4AWZGj5XjEJ-2" value="Decoder" style="shape=umlActor;verticalLabelPosition=bottom;verticalAlign=top;html=1;" parent="1" vertex="1">
          <mxGeometry x="70" y="120" width="30" height="60" as="geometry" />
        </mxCell>
        <mxCell id="XU4_op4EVZj-XPHD7sc--32" value="mainView" style="shape=umlLifeline;perimeter=lifelinePerimeter;whiteSpace=wrap;html=1;container=1;dropTarget=0;collapsible=0;recursiveResize=0;outlineConnect=0;portConstraint=eastwest;newEdgeStyle={&quot;curved&quot;:0,&quot;rounded&quot;:0};" parent="1" vertex="1">
          <mxGeometry x="1110" y="40" width="100" height="1320" as="geometry" />
        </mxCell>
        <mxCell id="XU4_op4EVZj-XPHD7sc--33" value="" style="html=1;points=[[0,0,0,0,5],[0,1,0,0,-5],[1,0,0,0,5],[1,1,0,0,-5]];perimeter=orthogonalPerimeter;outlineConnect=0;targetShapes=umlLifeline;portConstraint=eastwest;newEdgeStyle={&quot;curved&quot;:0,&quot;rounded&quot;:0};" parent="XU4_op4EVZj-XPHD7sc--32" vertex="1">
          <mxGeometry x="45" y="90" width="10" height="1190" as="geometry" />
        </mxCell>
        <mxCell id="XU4_op4EVZj-XPHD7sc--34" value="decoderNameDialog" style="shape=umlLifeline;perimeter=lifelinePerimeter;whiteSpace=wrap;html=1;container=1;dropTarget=0;collapsible=0;recursiveResize=0;outlineConnect=0;portConstraint=eastwest;newEdgeStyle={&quot;curved&quot;:0,&quot;rounded&quot;:0};" parent="1" vertex="1">
          <mxGeometry x="1230" y="40" width="120" height="1320" as="geometry" />
        </mxCell>
        <mxCell id="XU4_op4EVZj-XPHD7sc--35" value="" style="html=1;points=[[0,0,0,0,5],[0,1,0,0,-5],[1,0,0,0,5],[1,1,0,0,-5]];perimeter=orthogonalPerimeter;outlineConnect=0;targetShapes=umlLifeline;portConstraint=eastwest;newEdgeStyle={&quot;curved&quot;:0,&quot;rounded&quot;:0};" parent="XU4_op4EVZj-XPHD7sc--34" vertex="1">
          <mxGeometry x="55" y="90" width="10" height="1190" as="geometry" />
        </mxCell>
        <mxCell id="XU4_op4EVZj-XPHD7sc--36" value="decodingGame" style="shape=umlLifeline;perimeter=lifelinePerimeter;whiteSpace=wrap;html=1;container=1;dropTarget=0;collapsible=0;recursiveResize=0;outlineConnect=0;portConstraint=eastwest;newEdgeStyle={&quot;curved&quot;:0,&quot;rounded&quot;:0};" parent="1" vertex="1">
          <mxGeometry x="440" y="40" width="100" height="1320" as="geometry" />
        </mxCell>
        <mxCell id="XU4_op4EVZj-XPHD7sc--37" value="" style="html=1;points=[[0,0,0,0,5],[0,1,0,0,-5],[1,0,0,0,5],[1,1,0,0,-5]];perimeter=orthogonalPerimeter;outlineConnect=0;targetShapes=umlLifeline;portConstraint=eastwest;newEdgeStyle={&quot;curved&quot;:0,&quot;rounded&quot;:0};" parent="XU4_op4EVZj-XPHD7sc--36" vertex="1">
          <mxGeometry x="45" y="90" width="10" height="1190" as="geometry" />
        </mxCell>
        <mxCell id="XU4_op4EVZj-XPHD7sc--82" value="add in temporary&lt;br&gt;sequence &lt;br&gt;combo boxes&lt;br&gt;values" style="html=1;verticalAlign=bottom;endArrow=block;curved=0;rounded=0;" parent="XU4_op4EVZj-XPHD7sc--36" edge="1">
          <mxGeometry x="0.5" y="51" width="80" relative="1" as="geometry">
            <mxPoint x="55" y="760" as="sourcePoint" />
            <mxPoint x="55" y="790" as="targetPoint" />
            <Array as="points">
              <mxPoint x="70" y="760" />
              <mxPoint x="70" y="790" />
            </Array>
            <mxPoint x="50" y="-41" as="offset" />
          </mxGeometry>
        </mxCell>
        <mxCell id="XU4_op4EVZj-XPHD7sc--39" value="gameFacade" style="shape=umlLifeline;perimeter=lifelinePerimeter;whiteSpace=wrap;html=1;container=1;dropTarget=0;collapsible=0;recursiveResize=0;outlineConnect=0;portConstraint=eastwest;newEdgeStyle={&quot;curved&quot;:0,&quot;rounded&quot;:0};" parent="1" vertex="1">
          <mxGeometry x="200" y="40" width="100" height="1320" as="geometry" />
        </mxCell>
        <mxCell id="XU4_op4EVZj-XPHD7sc--40" value="" style="html=1;points=[[0,0,0,0,5],[0,1,0,0,-5],[1,0,0,0,5],[1,1,0,0,-5]];perimeter=orthogonalPerimeter;outlineConnect=0;targetShapes=umlLifeline;portConstraint=eastwest;newEdgeStyle={&quot;curved&quot;:0,&quot;rounded&quot;:0};" parent="XU4_op4EVZj-XPHD7sc--39" vertex="1">
          <mxGeometry x="45" y="90" width="10" height="1190" as="geometry" />
        </mxCell>
        <mxCell id="XU4_op4EVZj-XPHD7sc--41" value="viewFacade" style="shape=umlLifeline;perimeter=lifelinePerimeter;whiteSpace=wrap;html=1;container=1;dropTarget=0;collapsible=0;recursiveResize=0;outlineConnect=0;portConstraint=eastwest;newEdgeStyle={&quot;curved&quot;:0,&quot;rounded&quot;:0};" parent="1" vertex="1">
          <mxGeometry x="320" y="40" width="100" height="1320" as="geometry" />
        </mxCell>
        <mxCell id="XU4_op4EVZj-XPHD7sc--43" value="" style="html=1;points=[[0,0,0,0,5],[0,1,0,0,-5],[1,0,0,0,5],[1,1,0,0,-5]];perimeter=orthogonalPerimeter;outlineConnect=0;targetShapes=umlLifeline;portConstraint=eastwest;newEdgeStyle={&quot;curved&quot;:0,&quot;rounded&quot;:0};" parent="XU4_op4EVZj-XPHD7sc--41" vertex="1">
          <mxGeometry x="45" y="90" width="10" height="1190" as="geometry" />
        </mxCell>
        <mxCell id="XU4_op4EVZj-XPHD7sc--44" value="playerController" style="shape=umlLifeline;perimeter=lifelinePerimeter;whiteSpace=wrap;html=1;container=1;dropTarget=0;collapsible=0;recursiveResize=0;outlineConnect=0;portConstraint=eastwest;newEdgeStyle={&quot;curved&quot;:0,&quot;rounded&quot;:0};" parent="1" vertex="1">
          <mxGeometry x="560" y="40" width="100" height="1320" as="geometry" />
        </mxCell>
        <mxCell id="XU4_op4EVZj-XPHD7sc--45" value="" style="html=1;points=[[0,0,0,0,5],[0,1,0,0,-5],[1,0,0,0,5],[1,1,0,0,-5]];perimeter=orthogonalPerimeter;outlineConnect=0;targetShapes=umlLifeline;portConstraint=eastwest;newEdgeStyle={&quot;curved&quot;:0,&quot;rounded&quot;:0};" parent="XU4_op4EVZj-XPHD7sc--44" vertex="1">
          <mxGeometry x="45" y="90" width="10" height="1190" as="geometry" />
        </mxCell>
        <mxCell id="XU4_op4EVZj-XPHD7sc--46" value="gameController" style="shape=umlLifeline;perimeter=lifelinePerimeter;whiteSpace=wrap;html=1;container=1;dropTarget=0;collapsible=0;recursiveResize=0;outlineConnect=0;portConstraint=eastwest;newEdgeStyle={&quot;curved&quot;:0,&quot;rounded&quot;:0};" parent="1" vertex="1">
          <mxGeometry x="680" y="40" width="100" height="1320" as="geometry" />
        </mxCell>
        <mxCell id="XU4_op4EVZj-XPHD7sc--47" value="" style="html=1;points=[[0,0,0,0,5],[0,1,0,0,-5],[1,0,0,0,5],[1,1,0,0,-5]];perimeter=orthogonalPerimeter;outlineConnect=0;targetShapes=umlLifeline;portConstraint=eastwest;newEdgeStyle={&quot;curved&quot;:0,&quot;rounded&quot;:0};" parent="XU4_op4EVZj-XPHD7sc--46" vertex="1">
          <mxGeometry x="45" y="90" width="10" height="1190" as="geometry" />
        </mxCell>
        <mxCell id="XU4_op4EVZj-XPHD7sc--65" value="setAttemptLeft()" style="html=1;verticalAlign=bottom;endArrow=block;curved=0;rounded=0;" parent="XU4_op4EVZj-XPHD7sc--46" edge="1">
          <mxGeometry x="0.125" y="40" width="80" relative="1" as="geometry">
            <mxPoint x="55" y="230" as="sourcePoint" />
            <mxPoint x="55" y="260" as="targetPoint" />
            <Array as="points">
              <mxPoint x="80" y="230" />
              <mxPoint x="80" y="260" />
            </Array>
            <mxPoint as="offset" />
          </mxGeometry>
        </mxCell>
        <mxCell id="XU4_op4EVZj-XPHD7sc--48" value="nameInsertController" style="shape=umlLifeline;perimeter=lifelinePerimeter;whiteSpace=wrap;html=1;container=1;dropTarget=0;collapsible=0;recursiveResize=0;outlineConnect=0;portConstraint=eastwest;newEdgeStyle={&quot;curved&quot;:0,&quot;rounded&quot;:0};" parent="1" vertex="1">
          <mxGeometry x="800" y="40" width="120" height="1320" as="geometry" />
        </mxCell>
        <mxCell id="XU4_op4EVZj-XPHD7sc--49" value="" style="html=1;points=[[0,0,0,0,5],[0,1,0,0,-5],[1,0,0,0,5],[1,1,0,0,-5]];perimeter=orthogonalPerimeter;outlineConnect=0;targetShapes=umlLifeline;portConstraint=eastwest;newEdgeStyle={&quot;curved&quot;:0,&quot;rounded&quot;:0};" parent="XU4_op4EVZj-XPHD7sc--48" vertex="1">
          <mxGeometry x="55" y="90" width="10" height="1190" as="geometry" />
        </mxCell>
        <mxCell id="XU4_op4EVZj-XPHD7sc--51" value="difficultySelectionController" style="shape=umlLifeline;perimeter=lifelinePerimeter;whiteSpace=wrap;html=1;container=1;dropTarget=0;collapsible=0;recursiveResize=0;outlineConnect=0;portConstraint=eastwest;newEdgeStyle={&quot;curved&quot;:0,&quot;rounded&quot;:0};" parent="1" vertex="1">
          <mxGeometry x="940" y="40" width="150" height="1320" as="geometry" />
        </mxCell>
        <mxCell id="XU4_op4EVZj-XPHD7sc--52" value="" style="html=1;points=[[0,0,0,0,5],[0,1,0,0,-5],[1,0,0,0,5],[1,1,0,0,-5]];perimeter=orthogonalPerimeter;outlineConnect=0;targetShapes=umlLifeline;portConstraint=eastwest;newEdgeStyle={&quot;curved&quot;:0,&quot;rounded&quot;:0};" parent="XU4_op4EVZj-XPHD7sc--51" vertex="1">
          <mxGeometry x="70" y="90" width="10" height="1190" as="geometry" />
        </mxCell>
        <mxCell id="XU4_op4EVZj-XPHD7sc--53" value="encoder" style="shape=umlLifeline;perimeter=lifelinePerimeter;whiteSpace=wrap;html=1;container=1;dropTarget=0;collapsible=0;recursiveResize=0;outlineConnect=0;portConstraint=eastwest;newEdgeStyle={&quot;curved&quot;:0,&quot;rounded&quot;:0};" parent="1" vertex="1">
          <mxGeometry x="1370" y="40" width="100" height="1320" as="geometry" />
        </mxCell>
        <mxCell id="XU4_op4EVZj-XPHD7sc--54" value="" style="html=1;points=[[0,0,0,0,5],[0,1,0,0,-5],[1,0,0,0,5],[1,1,0,0,-5]];perimeter=orthogonalPerimeter;outlineConnect=0;targetShapes=umlLifeline;portConstraint=eastwest;newEdgeStyle={&quot;curved&quot;:0,&quot;rounded&quot;:0};" parent="XU4_op4EVZj-XPHD7sc--53" vertex="1">
          <mxGeometry x="45" y="90" width="10" height="1190" as="geometry" />
        </mxCell>
        <mxCell id="XU4_op4EVZj-XPHD7sc--55" value="decoder" style="shape=umlLifeline;perimeter=lifelinePerimeter;whiteSpace=wrap;html=1;container=1;dropTarget=0;collapsible=0;recursiveResize=0;outlineConnect=0;portConstraint=eastwest;newEdgeStyle={&quot;curved&quot;:0,&quot;rounded&quot;:0};" parent="1" vertex="1">
          <mxGeometry x="1490" y="40" width="100" height="1320" as="geometry" />
        </mxCell>
        <mxCell id="XU4_op4EVZj-XPHD7sc--56" value="" style="html=1;points=[[0,0,0,0,5],[0,1,0,0,-5],[1,0,0,0,5],[1,1,0,0,-5]];perimeter=orthogonalPerimeter;outlineConnect=0;targetShapes=umlLifeline;portConstraint=eastwest;newEdgeStyle={&quot;curved&quot;:0,&quot;rounded&quot;:0};" parent="XU4_op4EVZj-XPHD7sc--55" vertex="1">
          <mxGeometry x="45" y="90" width="10" height="1190" as="geometry" />
        </mxCell>
        <mxCell id="XU4_op4EVZj-XPHD7sc--57" value="game" style="shape=umlLifeline;perimeter=lifelinePerimeter;whiteSpace=wrap;html=1;container=1;dropTarget=0;collapsible=0;recursiveResize=0;outlineConnect=0;portConstraint=eastwest;newEdgeStyle={&quot;curved&quot;:0,&quot;rounded&quot;:0};" parent="1" vertex="1">
          <mxGeometry x="1610" y="40" width="100" height="1320" as="geometry" />
        </mxCell>
        <mxCell id="XU4_op4EVZj-XPHD7sc--58" value="" style="html=1;points=[[0,0,0,0,5],[0,1,0,0,-5],[1,0,0,0,5],[1,1,0,0,-5]];perimeter=orthogonalPerimeter;outlineConnect=0;targetShapes=umlLifeline;portConstraint=eastwest;newEdgeStyle={&quot;curved&quot;:0,&quot;rounded&quot;:0};" parent="XU4_op4EVZj-XPHD7sc--57" vertex="1">
          <mxGeometry x="45" y="90" width="10" height="1190" as="geometry" />
        </mxCell>
        <mxCell id="XU4_op4EVZj-XPHD7sc--60" value="ActionPerformed()" style="html=1;verticalAlign=bottom;endArrow=block;curved=0;rounded=0;" parent="1" edge="1">
          <mxGeometry width="80" relative="1" as="geometry">
            <mxPoint x="1155" y="169.9999999999999" as="sourcePoint" />
            <mxPoint x="1020.0000000000002" y="169.9999999999999" as="targetPoint" />
          </mxGeometry>
        </mxCell>
        <mxCell id="XU4_op4EVZj-XPHD7sc--61" value="handleDiffuculty&lt;br&gt;ChooseInput()" style="shape=umlFrame;whiteSpace=wrap;html=1;pointerEvents=0;width=100;height=30;" parent="1" vertex="1">
          <mxGeometry x="120" y="210" width="1640" height="190" as="geometry" />
        </mxCell>
        <mxCell id="XU4_op4EVZj-XPHD7sc--72" value="handleTurn()" style="shape=umlFrame;whiteSpace=wrap;html=1;pointerEvents=0;width=80;height=30;" parent="1" vertex="1">
          <mxGeometry x="120" y="560" width="1640" height="660" as="geometry" />
        </mxCell>
        <mxCell id="XU4_op4EVZj-XPHD7sc--73" value="" style="html=1;verticalAlign=bottom;endArrow=block;curved=0;rounded=0;entryX=0.027;entryY=0;entryDx=0;entryDy=0;entryPerimeter=0;" parent="1" target="XU4_op4EVZj-XPHD7sc--72" edge="1">
          <mxGeometry width="80" relative="1" as="geometry">
            <mxPoint x="485" y="540" as="sourcePoint" />
            <mxPoint x="180" y="540" as="targetPoint" />
            <Array as="points">
              <mxPoint x="190" y="540" />
            </Array>
          </mxGeometry>
        </mxCell>
        <mxCell id="XU4_op4EVZj-XPHD7sc--76" value="hasAttemptsLeft()" style="html=1;verticalAlign=bottom;endArrow=block;curved=0;rounded=0;entryX=0.004;entryY=0.99;entryDx=0;entryDy=0;entryPerimeter=0;" parent="1" target="XU4_op4EVZj-XPHD7sc--74" edge="1">
          <mxGeometry x="0.4805" width="80" relative="1" as="geometry">
            <mxPoint x="365" y="610" as="sourcePoint" />
            <mxPoint x="380" y="550" as="targetPoint" />
            <Array as="points">
              <mxPoint x="170" y="610" />
            </Array>
            <mxPoint as="offset" />
          </mxGeometry>
        </mxCell>
        <mxCell id="XU4_op4EVZj-XPHD7sc--77" value="checkDuplicate&lt;br&gt;InSequence()" style="html=1;verticalAlign=bottom;endArrow=block;curved=0;rounded=0;entryX=0.006;entryY=0.99;entryDx=0;entryDy=0;entryPerimeter=0;" parent="1" target="XU4_op4EVZj-XPHD7sc--75" edge="1">
          <mxGeometry x="0.9115" width="80" relative="1" as="geometry">
            <mxPoint x="1155" y="680" as="sourcePoint" />
            <mxPoint x="670" y="800" as="targetPoint" />
            <Array as="points">
              <mxPoint x="180" y="680" />
            </Array>
            <mxPoint as="offset" />
          </mxGeometry>
        </mxCell>
        <mxCell id="XU4_op4EVZj-XPHD7sc--80" value="getMainView()" style="html=1;verticalAlign=bottom;endArrow=block;curved=0;rounded=0;" parent="1" edge="1">
          <mxGeometry x="0.8333" width="80" relative="1" as="geometry">
            <mxPoint x="375" y="729.0000000000002" as="sourcePoint" />
            <mxPoint x="1155" y="729.0000000000002" as="targetPoint" />
            <mxPoint as="offset" />
          </mxGeometry>
        </mxCell>
        <mxCell id="XU4_op4EVZj-XPHD7sc--81" value="getComboBoxes()" style="html=1;verticalAlign=bottom;endArrow=block;curved=0;rounded=0;entryX=-0.001;entryY=0.987;entryDx=0;entryDy=0;entryPerimeter=0;" parent="1" source="XU4_op4EVZj-XPHD7sc--33" target="XU4_op4EVZj-XPHD7sc--78" edge="1">
          <mxGeometry x="0.7121" width="80" relative="1" as="geometry">
            <mxPoint x="850" y="700" as="sourcePoint" />
            <mxPoint x="930" y="700" as="targetPoint" />
            <Array as="points">
              <mxPoint x="200" y="740" />
            </Array>
            <mxPoint as="offset" />
          </mxGeometry>
        </mxCell>
        <mxCell id="XU4_op4EVZj-XPHD7sc--83" value="playTurn()" style="html=1;verticalAlign=bottom;endArrow=block;curved=0;rounded=0;" parent="1" edge="1">
          <mxGeometry x="0.5217" width="80" relative="1" as="geometry">
            <mxPoint x="485" y="893" as="sourcePoint" />
            <mxPoint x="255" y="893" as="targetPoint" />
            <mxPoint as="offset" />
          </mxGeometry>
        </mxCell>
        <mxCell id="XU4_op4EVZj-XPHD7sc--84" value="addSequence()" style="html=1;verticalAlign=bottom;endArrow=block;curved=0;rounded=0;" parent="1" edge="1">
          <mxGeometry x="0.9214" width="80" relative="1" as="geometry">
            <mxPoint x="255" y="910.0000000000002" as="sourcePoint" />
            <mxPoint x="1655" y="910.0000000000002" as="targetPoint" />
            <mxPoint as="offset" />
          </mxGeometry>
        </mxCell>
        <mxCell id="XU4_op4EVZj-XPHD7sc--85" value="evaluateSequence()" style="html=1;verticalAlign=bottom;endArrow=block;curved=0;rounded=0;" parent="1" edge="1">
          <mxGeometry x="0.8879" y="-1" width="80" relative="1" as="geometry">
            <mxPoint x="255" y="929" as="sourcePoint" />
            <mxPoint x="1415" y="929" as="targetPoint" />
            <mxPoint as="offset" />
          </mxGeometry>
        </mxCell>
        <mxCell id="XU4_op4EVZj-XPHD7sc--86" value="addHint()" style="html=1;verticalAlign=bottom;endArrow=block;curved=0;rounded=0;" parent="1" edge="1">
          <mxGeometry x="0.9214" width="80" relative="1" as="geometry">
            <mxPoint x="255" y="952.0000000000002" as="sourcePoint" />
            <mxPoint x="1655" y="952.0000000000002" as="targetPoint" />
            <mxPoint as="offset" />
          </mxGeometry>
        </mxCell>
        <mxCell id="XU4_op4EVZj-XPHD7sc--87" value="notifyObservers()" style="html=1;verticalAlign=bottom;endArrow=block;curved=0;rounded=0;" parent="1" target="XU4_op4EVZj-XPHD7sc--54" edge="1">
          <mxGeometry x="0.8879" width="80" relative="1" as="geometry">
            <mxPoint x="255" y="974" as="sourcePoint" />
            <mxPoint x="1655" y="974" as="targetPoint" />
            <mxPoint as="offset" />
          </mxGeometry>
        </mxCell>
        <mxCell id="XU4_op4EVZj-XPHD7sc--89" value="setCellColor()" style="html=1;verticalAlign=bottom;endArrow=block;curved=0;rounded=0;" parent="1" edge="1">
          <mxGeometry x="0.7973" width="80" relative="1" as="geometry">
            <mxPoint x="375" y="1020" as="sourcePoint" />
            <mxPoint x="1159.5" y="1020" as="targetPoint" />
            <mxPoint as="offset" />
          </mxGeometry>
        </mxCell>
        <mxCell id="XU4_op4EVZj-XPHD7sc--90" value="endTurn()" style="html=1;verticalAlign=bottom;endArrow=block;curved=0;rounded=0;entryX=1.5;entryY=0.815;entryDx=0;entryDy=0;entryPerimeter=0;" parent="1" edge="1">
          <mxGeometry x="0.5556" width="80" relative="1" as="geometry">
            <mxPoint x="485" y="1083.85" as="sourcePoint" />
            <mxPoint x="260" y="1083.85" as="targetPoint" />
            <mxPoint as="offset" />
          </mxGeometry>
        </mxCell>
        <mxCell id="XU4_op4EVZj-XPHD7sc--91" value="getCurrentAtttempt()" style="html=1;verticalAlign=bottom;endArrow=block;curved=0;rounded=0;" parent="1" edge="1">
          <mxGeometry x="0.9214" width="80" relative="1" as="geometry">
            <mxPoint x="255" y="1097" as="sourcePoint" />
            <mxPoint x="1655" y="1097" as="targetPoint" />
            <mxPoint as="offset" />
          </mxGeometry>
        </mxCell>
        <mxCell id="XU4_op4EVZj-XPHD7sc--92" value="setCurrentAtttempt()" style="html=1;verticalAlign=bottom;endArrow=block;curved=0;rounded=0;" parent="1" edge="1">
          <mxGeometry x="0.9214" width="80" relative="1" as="geometry">
            <mxPoint x="255" y="1118.9999999999998" as="sourcePoint" />
            <mxPoint x="1655" y="1118.9999999999998" as="targetPoint" />
            <mxPoint as="offset" />
          </mxGeometry>
        </mxCell>
        <mxCell id="XU4_op4EVZj-XPHD7sc--93" value="Loop for all attempts left" style="shape=umlFrame;whiteSpace=wrap;html=1;pointerEvents=0;width=100;height=60;" parent="1" vertex="1">
          <mxGeometry x="100" y="440" width="1700" height="840" as="geometry" />
        </mxCell>
      </root>
    </mxGraphModel>
  </diagram>
</mxfile>
